<svg xmlns="http://www.w3.org/2000/svg" xmlns:xlink="http://www.w3.org/1999/xlink" width="1080" zoomAndPan="magnify" viewBox="0 0 810 809.999993" height="1080" preserveAspectRatio="xMidYMid meet" version="1.0"><path fill="#ffffff" d="M 405.011719 -17.210938 C 172.195312 -17.210938 -17.210938 172.199219 -17.210938 405.011719 C -17.210938 637.824219 172.195312 827.234375 405.011719 827.234375 C 637.824219 827.234375 827.234375 637.824219 827.234375 405.011719 C 827.234375 172.199219 637.824219 -17.210938 405.011719 -17.210938 Z M 405.011719 853.898438 C 157.492188 853.898438 -43.875 652.53125 -43.875 405.011719 C -43.875 157.492188 157.492188 -43.875 405.011719 -43.875 C 652.53125 -43.875 853.898438 157.492188 853.898438 405.011719 C 853.898438 652.53125 652.53125 853.898438 405.011719 853.898438 " fill-opacity="1" fill-rule="nonzero"/><path fill="#b3b3b3" d="M 800.5 405.011719 C 800.5 623.429688 623.4375 800.496094 405.011719 800.496094 C 186.589844 800.496094 9.53125 623.429688 9.53125 405.011719 C 9.53125 186.589844 186.589844 9.523438 405.011719 9.523438 C 623.4375 9.523438 800.5 186.589844 800.5 405.011719 " fill-opacity="1" fill-rule="nonzero"/><path fill="#e1e1e1" d="M 551.480469 320.566406 C 551.480469 401.460938 485.90625 467.03125 405.011719 467.03125 C 324.121094 467.03125 258.546875 401.460938 258.546875 320.566406 C 258.546875 239.679688 324.121094 174.105469 405.011719 174.105469 C 485.90625 174.105469 551.480469 239.679688 551.480469 320.566406 " fill-opacity="1" fill-rule="nonzero"/><path fill="#e1e1e1" d="M 405.011719 497.332031 C 289.074219 497.332031 191.875 577.105469 165.039062 684.730469 C 229.597656 740.191406 313.421875 773.832031 405.011719 773.832031 C 496.601562 773.832031 580.429688 740.191406 644.984375 684.730469 C 618.152344 577.105469 520.953125 497.332031 405.011719 497.332031 " fill-opacity="1" fill-rule="nonzero"/><path fill="#e1e1e1" d="M 159.417969 714.988281 C 159.417969 714.988281 159.417969 714.996094 159.421875 714.996094 C 159.417969 714.996094 159.417969 714.988281 159.417969 714.988281 " fill-opacity="1" fill-rule="nonzero"/></svg>